<svg width="444" height="425" viewBox="0 0 444 425" fill="none" xmlns="http://www.w3.org/2000/svg">
<path d="M116.257 181.995L111.5 196.673L106.743 181.995L88.8928 126.909L31.1357 126.909H15.7806L28.1916 117.868L74.9297 83.8192L57.0756 28.7228L52.3279 14.0716L64.7762 23.1401L111.5 57.178L158.224 23.1401L170.672 14.0716L165.924 28.7228L148.07 83.8192L194.808 117.868L207.219 126.909H191.864L134.107 126.909L116.257 181.995Z" fill="#0A3161" stroke="#B31942" stroke-width="10"/>
<path d="M337.257 181.995L332.5 196.673L327.743 181.995L309.893 126.909L252.136 126.909H236.781L249.192 117.868L295.93 83.8192L278.076 28.7228L273.328 14.0716L285.776 23.1401L332.5 57.178L379.224 23.1401L391.672 14.0716L386.924 28.7228L369.07 83.8192L415.808 117.868L428.219 126.909H412.864L355.107 126.909L337.257 181.995Z" fill="#0A3161" stroke="#B31942" stroke-width="10"/>
<path d="M337.257 243.459L332.5 228.78L327.743 243.459L309.893 298.545L252.136 298.545H236.781L249.192 307.586L295.93 341.634L278.076 396.731L273.328 411.382L285.776 402.313L332.5 368.276L379.224 402.313L391.672 411.382L386.924 396.731L369.07 341.634L415.808 307.586L428.219 298.545H412.864L355.107 298.545L337.257 243.459Z" fill="#0A3161" stroke="#B31942" stroke-width="10"/>
<path d="M116.257 243.459L111.5 228.78L106.743 243.459L88.8928 298.545L31.1357 298.545H15.7806L28.1916 307.586L74.9297 341.634L57.0756 396.731L52.3279 411.382L64.7762 402.313L111.5 368.276L158.224 402.313L170.672 411.382L165.924 396.731L148.07 341.634L194.808 307.586L207.219 298.545H191.864L134.107 298.545L116.257 243.459Z" fill="#0A3161" stroke="#B31942" stroke-width="10"/>
</svg>
