<svg width="64" height="45" viewBox="0 0 64 45" fill="none" xmlns="http://www.w3.org/2000/svg">
<path d="M17.1812 33.744C15.2612 33.744 13.5653 33.392 12.0933 32.688C10.6213 31.984 8.50925 30.48 5.75725 28.176C3.96525 28.56 2.74925 29.488 2.10925 30.96C7.16525 37.808 12.9892 41.232 19.5812 41.232C22.4612 41.232 25.0852 40.72 27.4532 39.696C29.7572 38.672 31.5492 37.552 32.8292 36.336C34.0452 35.12 35.6132 34 37.5332 32.976C39.4532 31.952 41.4692 31.44 43.5812 31.44C45.3732 31.44 47.0372 31.952 48.5732 32.976C50.0452 34 52.1252 35.856 54.8132 38.544C56.6052 37.84 57.9172 36.688 58.7492 35.088C53.1172 27.664 47.1972 23.952 40.9892 23.952C38.1732 23.952 35.6452 24.464 33.4052 25.488C31.1012 26.512 29.3092 27.632 28.0292 28.848C26.6852 30.064 25.0852 31.184 23.2292 32.208C21.3092 33.232 19.2932 33.744 17.1812 33.744Z" fill="#B31942"/>
<path d="M19.1812 13.744C17.2612 13.744 15.5653 13.392 14.0933 12.688C12.6213 11.984 10.5092 10.48 7.75725 8.17599C5.96525 8.56 4.74925 9.488 4.10925 10.96C9.16525 17.808 14.9892 21.232 21.5812 21.232C24.4612 21.232 27.0852 20.72 29.4532 19.696C31.7572 18.672 33.5492 17.552 34.8292 16.336C36.0452 15.12 37.6132 14 39.5332 12.976C41.4532 11.952 43.4692 11.44 45.5812 11.44C47.3732 11.44 49.0372 11.952 50.5732 12.976C52.0452 14 54.1252 15.856 56.8132 18.544C58.6052 17.84 59.9172 16.688 60.7492 15.088C55.1172 7.664 49.1972 3.952 42.9892 3.952C40.1732 3.952 37.6452 4.464 35.4052 5.488C33.1012 6.512 31.3092 7.632 30.0292 8.848C28.6852 10.064 27.0852 11.184 25.2292 12.208C23.3092 13.232 21.2932 13.744 19.1812 13.744Z" fill="#0A3161"/>
</svg>
